<svg width="24" height="24" viewBox="0 0 24 24" fill="none" xmlns="http://www.w3.org/2000/svg">
<path d="M18.0957 10.8545C18.5097 10.8546 18.8456 11.1905 18.8457 11.6045C18.8457 14.9283 16.39 17.6169 13.1729 17.9824V20.4541H15.6953C16.1093 20.4541 16.445 20.7902 16.4453 21.2041C16.4453 21.6183 16.1095 21.9541 15.6953 21.9541H9.15039C8.73623 21.954 8.40039 21.6183 8.40039 21.2041C8.40075 20.7902 8.73645 20.4542 9.15039 20.4541H11.6729V17.9824C8.45564 17.617 6 14.9283 6 11.6045C6.00014 11.1904 6.33593 10.8546 6.75 10.8545C7.16412 10.8545 7.49986 11.1904 7.5 11.6045C7.5 14.3539 9.67348 16.5273 12.4229 16.5273C15.1722 16.5273 17.3457 14.3539 17.3457 11.6045C17.3458 11.1904 17.6816 10.8546 18.0957 10.8545ZM12.4229 3C14.3641 3.00014 15.8993 4.53627 15.8994 6.47754V11.9316C15.8994 13.873 14.3642 15.409 12.4229 15.4092C10.4815 15.409 8.94531 13.873 8.94531 11.9316V6.47754C8.94545 4.53627 10.4816 3.00014 12.4229 3Z" fill="#120008"/>
</svg>
