<svg preserveAspectRatio="none" overflow="visible" style="display: block;" width="26.4727" height="20.9014" viewBox="0 0 26.4727 20.9014" fill="none" xmlns="http://www.w3.org/2000/svg">
<path id="Union" d="M24.1862 5.86589C25.4482 5.86606 26.4722 6.88914 26.4727 8.15104V16.2318C26.4727 17.494 25.4484 18.5168 24.1862 18.5169H21.7552L21.6029 19.4297L21.4375 20.4232C21.3655 20.8552 20.8545 21.0492 20.5143 20.7734L19.7305 20.138L17.7318 18.5169H11.2396C9.97735 18.5168 8.95443 17.494 8.95443 16.2318V8.15104C8.95484 6.88913 9.97761 5.86604 11.2396 5.86589H24.1862ZM8.28776 0C11.3198 0 13.9705 1.62925 15.4141 4.05469L15.6758 4.52995C15.7364 4.64896 15.7927 4.77098 15.8477 4.89323H13.5768C12.4568 3.15241 10.5074 2 8.28776 2C4.81576 2.00041 2.0002 4.81572 2 8.28776L2.00911 8.63021C2.10059 10.3329 2.8697 11.8555 4.05339 12.9349L4.39063 13.2422L4.38021 13.6979L4.33724 15.4583L5.93099 14.487L6.29297 14.2669L6.70313 14.3737C7.11391 14.4803 7.54168 14.5438 7.98047 14.5651V16.2331C7.98051 16.3468 7.99174 16.4584 8.00781 16.5677C7.53698 16.5512 7.07548 16.4964 6.6276 16.4049L4.70833 17.5768C3.64707 18.2236 2.28904 17.44 2.31901 16.1966L2.36849 14.0872C0.905253 12.5938 0.00017035 10.5456 0 8.28776C0.000200957 3.71114 3.7112 0.000415663 8.28776 0ZM11.2396 7.86589C11.0822 7.86604 10.9548 7.99372 10.9544 8.15104V16.2318C10.9544 16.3891 11.0816 16.5168 11.2396 16.5169H18.4414L18.9909 16.9635L19.8672 17.6745L20.0612 16.5169H24.1862C24.3453 16.5168 24.4727 16.388 24.4727 16.2318V8.15104C24.4722 7.99487 24.3447 7.86606 24.1862 7.86589H11.2396Z" fill="black"/>
</svg>
