<svg preserveAspectRatio="none" overflow="visible" style="display: block;" width="17.9845" height="17.9845" viewBox="0 0 17.9845 17.9845" fill="none" xmlns="http://www.w3.org/2000/svg">
<g id="Group 1038">
<path id="&#232;&#183;&#175;&#229;&#190;&#132;" d="M1.06357 9.69046C1.33483 10.7005 2.03151 10.988 3.17805 10.8261C4.52589 10.6359 5.66678 10.2736 5.58356 9.10959C5.58356 9.10959 5.4767 7.85573 8.75648 7.76014C12.5832 7.66191 12.4208 9.14673 12.4208 9.14673C12.422 10.5131 13.3661 10.5893 14.7111 10.7895C16.0561 10.9897 16.8788 10.656 17.0445 9.16144C17.3636 6.28132 12.1014 5.53025 9.79187 5.50157L9.79182 5.50144C9.79182 5.50144 6.27007 5.44806 4.5837 5.94426L3.67459 6.20275C2.40908 6.61188 1.27256 7.35637 1.00803 8.41613C1.00801 8.4161 0.852441 8.89889 1.06357 9.69046Z" fill="#FFF7FB"/>
</g>
</svg>
