<svg preserveAspectRatio="none" overflow="visible" style="display: block;" width="18.0007" height="18.0011" viewBox="0 0 18.0007 18.0011" fill="none" xmlns="http://www.w3.org/2000/svg">
<path id="Union" d="M1.82539 0.721869C2.63113 0.166109 3.56415 -0.15842 4.5793 0.0783144C5.64676 0.327429 6.39925 1.11635 6.93476 1.83906C7.15455 2.13569 7.41499 2.47862 7.62812 2.80097C7.84292 3.12587 8.07807 3.52911 8.21894 3.98945C8.36887 4.47965 8.41237 5.03816 8.2375 5.62714C8.09323 6.11275 7.82556 6.5294 7.50019 6.89179C7.5658 7.148 7.86866 7.86985 9.19844 9.13398C10.2382 10.1149 10.8528 10.3854 11.1076 10.4592C11.4467 10.1561 11.8429 9.93131 12.2922 9.81171C12.8678 9.65858 13.4211 9.70648 13.8957 9.83027C14.7898 10.0635 15.6268 10.6296 16.2814 11.1223C16.9256 11.6071 17.5679 12.2479 17.8527 13.1164C18.1637 14.0651 17.9558 14.9828 17.4953 15.7814L17.4934 15.7834C17.166 16.3489 16.8076 16.748 16.5041 17.0187C16.353 17.1535 16.217 17.256 16.1066 17.3303C16.0515 17.3673 16.0022 17.397 15.9611 17.4211C15.9407 17.4331 15.9221 17.4442 15.9055 17.4533C15.9042 17.454 15.9028 17.4546 15.9016 17.4553C14.9889 17.985 13.9747 18.0706 13.0676 17.9572C12.1438 17.8417 11.2325 17.5112 10.426 17.0988L10.4016 17.0861L10.3791 17.0734L9.40449 16.5305V16.5295C8.3189 15.9343 7.02624 14.8305 6.0832 13.968C5.59099 13.5178 5.15881 13.1004 4.8498 12.7961C4.69512 12.6438 4.57014 12.5183 4.48359 12.4309C4.44055 12.3874 4.40632 12.3531 4.38301 12.3293C4.37144 12.3175 4.36198 12.3075 4.35566 12.301L4.34492 12.2902L3.60469 11.5266L3.61933 11.4963C2.68863 10.4241 1.59065 8.94536 0.856639 7.4123C0.389318 6.43617 0.0102274 5.31865 0.000193779 4.20624C-0.0102483 3.02975 0.400267 1.84326 1.4875 0.972846L1.82539 0.721869ZM5.72969 2.73261C4.77496 1.44411 3.80957 1.03549 2.425 2.14374C-0.243094 4.27964 3.51964 9.29491 5.42207 11.2453C5.42207 11.2453 8.31455 14.227 10.135 15.2199L11.1086 15.7629C12.5053 16.4772 14.0744 16.8041 15.1789 16.1408C15.1833 16.1386 15.7134 15.8643 16.1955 15.0314C16.773 14.0296 16.509 13.2456 15.5744 12.4748L15.3791 12.3205C14.0965 11.3552 12.842 10.7063 11.9406 11.7463C11.9261 11.7631 11.0224 12.7921 8.42793 10.4631L8.16914 10.2258C5.30554 7.50541 5.99864 6.32051 6.21699 6.0666L6.26973 6.01289C7.26581 5.01485 6.83608 4.23831 6.07344 3.19648L5.72969 2.73261ZM10.8332 10.7355L10.8039 10.7678C10.8029 10.7689 10.802 10.7705 10.801 10.7717L10.8078 10.7639C10.8282 10.7403 10.8504 10.7184 10.8713 10.6955L10.8332 10.7355ZM14.0891 2.14472C14.7991 2.14472 15.3752 2.72077 15.3752 3.43085V3.54706L16.298 3.0666C16.6497 2.88331 17.089 3.11216 17.0891 3.47871V5.95332C17.0887 6.31969 16.6496 6.54961 16.298 6.3664L15.3752 5.88398V6.00214C15.3748 6.71191 14.7989 7.2873 14.0891 7.2873H10.6613C9.95156 7.2872 9.37556 6.71185 9.37519 6.00214V3.43085C9.37519 2.72084 9.95133 2.14482 10.6613 2.14472H14.0891ZM10.8752 5.7873H13.8752V3.64472H10.8752V5.7873Z" fill="white"/>
</svg>
